<svg xmlns="http://www.w3.org/2000/svg" xmlns:xlink="http://www.w3.org/1999/xlink" width="500" zoomAndPan="magnify" viewBox="0 0 375 374.999991" height="500" preserveAspectRatio="xMidYMid meet" version="1.0"><defs><g/></defs><g fill="#eeeeee" fill-opacity="1"><g transform="translate(37.511721, 227.891908)"><g><path d="M 8.140625 -26.109375 C 9.492188 -25.046875 11.828125 -23.582031 15.140625 -21.71875 C 18.460938 -19.863281 21.640625 -18.9375 24.671875 -18.9375 C 27.703125 -18.9375 29.21875 -20.117188 29.21875 -22.484375 C 29.21875 -23.546875 28.789062 -24.488281 27.9375 -25.3125 C 27.082031 -26.132812 25.507812 -27.078125 23.21875 -28.140625 C 20.9375 -29.210938 19.222656 -30.050781 18.078125 -30.65625 C 16.941406 -31.269531 15.425781 -32.269531 13.53125 -33.65625 C 11.644531 -35.050781 10.203125 -36.5 9.203125 -38 C 6.347656 -42.0625 4.921875 -47.234375 4.921875 -53.515625 C 4.921875 -59.796875 7.253906 -65.09375 11.921875 -69.40625 C 16.597656 -73.726562 22.722656 -75.890625 30.296875 -75.890625 C 35.429688 -75.890625 40.171875 -75.332031 44.515625 -74.21875 C 48.867188 -73.113281 51.117188 -71.671875 51.265625 -69.890625 C 51.265625 -69.679688 51.265625 -69.46875 51.265625 -69.25 C 51.265625 -66.75 50.476562 -63.585938 48.90625 -59.765625 C 47.34375 -55.953125 46.238281 -53.832031 45.59375 -53.40625 C 41.03125 -55.757812 36.945312 -56.9375 33.34375 -56.9375 C 29.738281 -56.9375 27.9375 -55.65625 27.9375 -53.09375 C 27.9375 -51.519531 29.253906 -50.125 31.890625 -48.90625 C 32.460938 -48.625 33.285156 -48.234375 34.359375 -47.734375 C 35.429688 -47.234375 36.660156 -46.644531 38.046875 -45.96875 C 39.441406 -45.289062 40.941406 -44.429688 42.546875 -43.390625 C 44.148438 -42.359375 45.878906 -40.988281 47.734375 -39.28125 C 51.515625 -35.707031 53.40625 -31 53.40625 -25.15625 C 53.40625 -17.519531 51.300781 -11.273438 47.09375 -6.421875 C 42.882812 -1.566406 36.390625 0.929688 27.609375 1.078125 C 23.328125 1.078125 19.457031 0.71875 16 0 C 12.539062 -0.71875 9.523438 -2.109375 6.953125 -4.171875 C 4.390625 -6.242188 3.109375 -8.742188 3.109375 -11.671875 C 3.109375 -14.597656 3.640625 -17.503906 4.703125 -20.390625 C 5.773438 -23.273438 6.921875 -25.179688 8.140625 -26.109375 Z M 8.140625 -26.109375 "/></g></g></g><g fill="#eeeeee" fill-opacity="1"><g transform="translate(94.343215, 227.891908)"><g><path d="M 40.34375 -72.78125 C 40.34375 -74.207031 44.210938 -74.921875 51.953125 -74.921875 C 59.703125 -74.921875 63.578125 -74.207031 63.578125 -72.78125 L 63.578125 -23.65625 C 63.578125 -16.375 60.972656 -10.429688 55.765625 -5.828125 C 50.554688 -1.222656 43.363281 1.078125 34.1875 1.078125 C 25.019531 1.078125 17.566406 -1.296875 11.828125 -6.046875 C 6.085938 -10.796875 3.21875 -17.203125 3.21875 -25.265625 L 3.21875 -72.671875 C 3.21875 -74.097656 7.085938 -74.8125 14.828125 -74.8125 C 22.566406 -74.8125 26.4375 -74.097656 26.4375 -72.671875 L 26.4375 -24.40625 C 26.4375 -22.976562 27.1875 -21.835938 28.6875 -20.984375 C 30.257812 -20.117188 31.898438 -19.6875 33.609375 -19.6875 C 35.316406 -19.6875 36.863281 -20.078125 38.25 -20.859375 C 39.644531 -21.648438 40.34375 -22.832031 40.34375 -24.40625 Z M 40.34375 -72.78125 "/></g></g></g><g fill="#eeeeee" fill-opacity="1"><g transform="translate(161.556352, 227.891908)"><g><path d="M 37.5625 -1.71875 C 37.5625 -0.289062 34.03125 0.421875 26.96875 0.421875 C 19.90625 0.421875 16.375 -0.289062 16.375 -1.71875 L 16.375 -55.4375 L 3.53125 -55.4375 C 2.320312 -55.4375 1.46875 -57.078125 0.96875 -60.359375 C 0.75 -61.929688 0.640625 -63.535156 0.640625 -65.171875 C 0.640625 -66.816406 0.75 -68.425781 0.96875 -70 C 1.46875 -73.28125 2.320312 -74.921875 3.53125 -74.921875 L 50.09375 -74.921875 C 51.300781 -74.921875 52.15625 -73.28125 52.65625 -70 C 52.875 -68.425781 52.984375 -66.816406 52.984375 -65.171875 C 52.984375 -63.535156 52.875 -61.929688 52.65625 -60.359375 C 52.15625 -57.078125 51.300781 -55.4375 50.09375 -55.4375 L 37.5625 -55.4375 Z M 37.5625 -1.71875 "/></g></g></g><g fill="#eeeeee" fill-opacity="1"><g transform="translate(215.284048, 227.891908)"><g><path d="M 37.5625 -1.71875 C 37.5625 -0.289062 34.03125 0.421875 26.96875 0.421875 C 19.90625 0.421875 16.375 -0.289062 16.375 -1.71875 L 16.375 -55.4375 L 3.53125 -55.4375 C 2.320312 -55.4375 1.46875 -57.078125 0.96875 -60.359375 C 0.75 -61.929688 0.640625 -63.535156 0.640625 -65.171875 C 0.640625 -66.816406 0.75 -68.425781 0.96875 -70 C 1.46875 -73.28125 2.320312 -74.921875 3.53125 -74.921875 L 50.09375 -74.921875 C 51.300781 -74.921875 52.15625 -73.28125 52.65625 -70 C 52.875 -68.425781 52.984375 -66.816406 52.984375 -65.171875 C 52.984375 -63.535156 52.875 -61.929688 52.65625 -60.359375 C 52.15625 -57.078125 51.300781 -55.4375 50.09375 -55.4375 L 37.5625 -55.4375 Z M 37.5625 -1.71875 "/></g></g></g><g fill="#eeeeee" fill-opacity="1"><g transform="translate(269.011743, 227.891908)"><g><path d="M 55.65625 0.21875 C 49.445312 0.21875 46.09375 -0.78125 45.59375 -2.78125 L 42.0625 -16.59375 L 25.046875 -16.59375 L 21.9375 -3.3125 C 21.507812 -1.101562 18.085938 0 11.671875 0 C 8.242188 0 5.707031 -0.191406 4.0625 -0.578125 C 2.425781 -0.972656 1.609375 -1.28125 1.609375 -1.5 L 20.546875 -73.953125 C 20.546875 -74.523438 25.429688 -74.8125 35.203125 -74.8125 C 44.984375 -74.8125 49.875 -74.523438 49.875 -73.953125 L 68.390625 -1.390625 C 68.390625 -0.890625 66.75 -0.492188 63.46875 -0.203125 C 60.1875 0.078125 57.582031 0.21875 55.65625 0.21875 Z M 27.71875 -30.1875 L 38.953125 -30.1875 L 34.140625 -52.34375 L 33.5 -52.34375 Z M 27.71875 -30.1875 "/></g></g></g></svg>